<svg xmlns="http://www.w3.org/2000/svg" viewBox="0 0 60 60" width="256" height="256">
  <path d="m1.811 34.81 2.881 1.154a25.875 25.875 0 0 0 3.2 7.708l-1.218 2.863a2.678 2.678 0 0 0 .391 2.789 31.442 31.442 0 0 0 3.624 3.622 2.619 2.619 0 0 0 1.687.611 2.746 2.746 0 0 0 1.087-.227L14 53.1V57a3 3 0 0 0 3 3h26a3 3 0 0 0 3-3v-3.9l.533.226a2.674 2.674 0 0 0 2.786-.39 29.855 29.855 0 0 0 3.618-3.618 2.674 2.674 0 0 0 .391-2.782L52.1 43.672a25.875 25.875 0 0 0 3.2-7.708l2.878-1.153a2.713 2.713 0 0 0 1.7-2.231 28.831 28.831 0 0 0 0-5.166 2.709 2.709 0 0 0-1.694-2.221l-2.881-1.154a25.859 25.859 0 0 0-3.2-7.709l1.222-2.862a2.68 2.68 0 0 0-.391-2.79 31.4 31.4 0 0 0-3.617-3.615 2.679 2.679 0 0 0-2.782-.391L43.671 7.9a25.884 25.884 0 0 0-7.708-3.2L34.81 1.813a2.713 2.713 0 0 0-2.232-1.7 28.183 28.183 0 0 0-5.165 0 2.707 2.707 0 0 0-2.222 1.693l-1.154 2.887a25.884 25.884 0 0 0-7.708 3.2l-2.862-1.219a2.667 2.667 0 0 0-2.786.389 29.949 29.949 0 0 0-3.619 3.62 2.675 2.675 0 0 0-.39 2.781L7.9 16.33a25.859 25.859 0 0 0-3.2 7.709l-2.886 1.153a2.713 2.713 0 0 0-1.7 2.231 28.662 28.662 0 0 0 0 5.166 2.709 2.709 0 0 0 1.697 2.221ZM43 19h-7.278A1.993 1.993 0 0 0 34 18h-.127a4 4 0 0 0-7.746 0H26a1.993 1.993 0 0 0-1.722 1H17a3 3 0 0 0-3 3v19.965A19.991 19.991 0 1 1 50 30a19.832 19.832 0 0 1-4 11.965V22a3 3 0 0 0-3-3Zm-3 6v29H20V25Zm-14-2v-3h1a1 1 0 0 0 1-1 2 2 0 0 1 4 0 1 1 0 0 0 1 1h1v3Zm18 34a1 1 0 0 1-1 1H17a1 1 0 0 1-1-1V22a1 1 0 0 1 1-1h7v2h-4a2 2 0 0 0-2 2v29a2 2 0 0 0 2 2h20a2 2 0 0 0 2-2V25a2 2 0 0 0-2-2h-4v-2h7a1 1 0 0 1 1 1ZM2.107 27.608a.7.7 0 0 1 .448-.558l3.369-1.35a1 1 0 0 0 .6-.718 23.92 23.92 0 0 1 3.336-8.016 1 1 0 0 0 .081-.937L8.51 12.676a.672.672 0 0 1 .083-.706 27.987 27.987 0 0 1 3.382-3.382.669.669 0 0 1 .7-.076l3.349 1.43a1 1 0 0 0 .938-.081A23.866 23.866 0 0 1 24.98 6.53a1 1 0 0 0 .719-.606l1.351-3.372a.7.7 0 0 1 .556-.444 26.947 26.947 0 0 1 4.788 0 .7.7 0 0 1 .557.446l1.35 3.37a1 1 0 0 0 .719.606 23.866 23.866 0 0 1 8.014 3.331 1 1 0 0 0 .938.081l3.352-1.431a.669.669 0 0 1 .7.079 29.421 29.421 0 0 1 3.391 3.391.672.672 0 0 1 .07.7l-1.429 3.35a1 1 0 0 0 .081.937 23.92 23.92 0 0 1 3.331 8.016 1 1 0 0 0 .605.718l3.373 1.351a.7.7 0 0 1 .444.557 26.737 26.737 0 0 1 0 4.786.7.7 0 0 1-.448.558L54.076 34.3a1 1 0 0 0-.605.718 23.894 23.894 0 0 1-3.331 8.015 1 1 0 0 0-.081.938l1.431 3.353a.672.672 0 0 1-.083.706 28.094 28.094 0 0 1-3.389 3.388.677.677 0 0 1-.7.07L46 50.929V45.07A21.992 21.992 0 1 0 8 30a21.834 21.834 0 0 0 6 15.07v5.859l-1.324.563a.672.672 0 0 1-.7-.08 29.433 29.433 0 0 1-3.394-3.392.67.67 0 0 1-.07-.7l1.429-3.35a1 1 0 0 0-.081-.938 23.894 23.894 0 0 1-3.331-8.012 1 1 0 0 0-.6-.718l-3.378-1.351a.7.7 0 0 1-.444-.557 26.923 26.923 0 0 1 0-4.786Z" fill="#ffffff" class="color000 svgShape"></path>
  <path d="M33.293 34.707A1 1 0 0 0 34 35h.071a1 1 0 0 0 .729-.4l3-4a1 1 0 0 0-1.6-1.2l-2.308 3.078-.185-.185a1 1 0 0 0-1.414 1.414zM23 34h6a1 1 0 0 0 0-2h-6a1 1 0 0 0 0 2zm10.293 7.707A1 1 0 0 0 34 42h.071a1 1 0 0 0 .729-.4l3-4a1 1 0 0 0-1.6-1.2l-2.308 3.078-.185-.185a1 1 0 0 0-1.414 1.414zM23 41h6a1 1 0 0 0 0-2h-6a1 1 0 0 0 0 2zm10.293 7.707A1 1 0 0 0 34 49h.071a1 1 0 0 0 .729-.4l3-4a1 1 0 0 0-1.6-1.2l-2.308 3.078-.185-.185a1 1 0 0 0-1.414 1.414zM23 48h6a1 1 0 0 0 0-2h-6a1 1 0 0 0 0 2z" fill="#ffffff" class="color000 svgShape"></path>
</svg>